<?xml version="1.0" encoding="UTF-8" standalone="no"?>
<svg
   xmlns:dc="http://purl.org/dc/elements/1.1/"
   xmlns:cc="http://creativecommons.org/ns#"
   xmlns:rdf="http://www.w3.org/1999/02/22-rdf-syntax-ns#"
   xmlns:svg="http://www.w3.org/2000/svg"
   xmlns="http://www.w3.org/2000/svg"
   xmlns:xlink="http://www.w3.org/1999/xlink"
   xmlns:sodipodi="http://sodipodi.sourceforge.net/DTD/sodipodi-0.dtd"
   xmlns:inkscape="http://www.inkscape.org/namespaces/inkscape"
   height="76.204247"
   width="105.3"
   version="1.1"
   id="svg1545"
   sodipodi:docname="eldidi-cloud-check.svg"
   inkscape:version="1.0.2 (e86c870879, 2021-01-15)">
  <metadata
     id="metadata1551">
    <rdf:RDF>
      <cc:Work
         rdf:about="">
        <dc:format>image/svg+xml</dc:format>
        <dc:type
           rdf:resource="http://purl.org/dc/dcmitype/StillImage" />
        <dc:title></dc:title>
      </cc:Work>
    </rdf:RDF>
  </metadata>
  <defs
     id="defs1549">
    <linearGradient
       inkscape:collect="always"
       id="linearGradient5883">
      <stop
         style="stop-color:#0095a2;stop-opacity:1"
         offset="0"
         id="stop5879" />
      <stop
         style="stop-color:#396abf;stop-opacity:0.99215686"
         offset="1"
         id="stop5881" />
    </linearGradient>
    <linearGradient
       inkscape:collect="always"
       id="linearGradient2342">
      <stop
         style="stop-color:#0095a2;stop-opacity:1;"
         offset="0"
         id="stop2338" />
      <stop
         style="stop-color:#396abf;stop-opacity:0.99215686"
         offset="1"
         id="stop2340" />
    </linearGradient>
    <clipPath
       clipPathUnits="userSpaceOnUse"
       id="clipPath1104">
      <g
         aria-label="D"
         transform="matrix(0.74692134,0,0,0.74692134,14.407124,29.643881)"
         id="g1108"
         style="font-size:10.5833px;line-height:1.25;font-family:sans-serif;letter-spacing:0px;white-space:pre;shape-inside:url(#rect838);fill:#006bff;fill-opacity:1">
        <path
           d="m 61.753388,113.27543 h 3.531433 c 1.495167,0 2.592426,0.31178 3.291778,0.93534 0.699352,0.62011 1.049028,1.59163 1.049028,2.91454 0,1.3298 -0.351399,2.30648 -1.054196,2.93004 -0.702797,0.62356 -1.798334,0.93534 -3.28661,0.93534 h -3.531433 z"
           id="path1106"
           sodipodi:nodetypes="cscssscc"
           style="fill:#006bff;fill-opacity:1" />
      </g>
    </clipPath>
    <linearGradient
       inkscape:collect="always"
       xlink:href="#linearGradient2342"
       id="linearGradient2344"
       x1="-0.5"
       y1="49.9995"
       x2="117.65667"
       y2="76.554306"
       gradientUnits="userSpaceOnUse"
       gradientTransform="translate(2.6500001,-19.227)" />
    <linearGradient
       inkscape:collect="always"
       xlink:href="#linearGradient5883"
       id="linearGradient5877"
       x1="6.5065341"
       y1="29.667934"
       x2="123.5708"
       y2="56.916603"
       gradientUnits="userSpaceOnUse" />
  </defs>
  <sodipodi:namedview
     pagecolor="#ffffff"
     bordercolor="#666666"
     borderopacity="1"
     objecttolerance="10"
     gridtolerance="10"
     guidetolerance="10"
     inkscape:pageopacity="0"
     inkscape:pageshadow="2"
     inkscape:window-width="1190"
     inkscape:window-height="815"
     id="namedview1547"
     showgrid="false"
     showguides="true"
     inkscape:guide-bbox="true"
     fit-margin-top="0"
     fit-margin-left="0"
     fit-margin-right="0"
     fit-margin-bottom="0"
     inkscape:zoom="2.8284271"
     inkscape:cx="56.317859"
     inkscape:cy="37.369526"
     inkscape:window-x="919"
     inkscape:window-y="188"
     inkscape:window-maximized="0"
     inkscape:current-layer="svg1545">
    <sodipodi:guide
       position="32.731417,14.662795"
       orientation="0,-1"
       id="guide2336" />
  </sodipodi:namedview>
  <path
     d="m 83.895,21.399 c -2.34,0 -4.558,0.484 -6.615,1.264 C 75.492,11.342 65.772,2.6500001 53.954,2.6500001 40.859,2.6500001 30.252,13.258 30.252,26.346 c 0,0.296 0.081,0.571 0.094,0.867 -0.296,-0.02 -0.578,-0.087 -0.874,-0.087 -7.045,0 -12.759,5.714 -12.759,12.759 0,0.087 0.027,0.168 0.027,0.255 -1.008,-0.302 -2.05,-0.518 -3.153,-0.518 -6.0429999,0 -10.9369999,4.901 -10.9369999,10.938 0,6.043 4.894,8.335 10.9369999,8.335 h 70.308 c 10.358,0 18.755,-8.389 18.755,-18.748 0,-10.359 -8.396,-18.748 -18.755,-18.748 z"
     id="path1543"
     style="fill:#ffffff;fill-opacity:0.00156238;stroke:url(#linearGradient2344);stroke-width:5.3;stroke-miterlimit:4;stroke-dasharray:none;stroke-opacity:1" />
  <circle
     cx="56.584957"
     cy="52.496758"
     fill="#ffffff"
     id="circle2610"
     style="stroke-width:0.749594"
     r="22.48781" />
  <path
     d="m 56.584955,30.008945 c -12.420018,0 -22.487811,10.068542 -22.487811,22.48781 0,12.419268 10.068543,22.48781 22.487811,22.48781 12.419268,0 22.48781,-10.068542 22.48781,-22.48781 0,-12.419268 -10.068542,-22.48781 -22.48781,-22.48781 z m -5.228416,35.980497 -0.015,-0.015 -0.01274,0.015 -10.485316,-10.79415 5.268894,-5.370089 5.229916,5.385082 15.741466,-16.205466 5.242659,5.395575 z"
     fill="#43a047"
     id="path2612"
     style="stroke-width:0.749594;fill-opacity:1;fill:url(#linearGradient5877)" />
</svg>
