<?xml version="1.0" encoding="UTF-8" standalone="no"?>
<svg
   xmlns:dc="http://purl.org/dc/elements/1.1/"
   xmlns:cc="http://creativecommons.org/ns#"
   xmlns:rdf="http://www.w3.org/1999/02/22-rdf-syntax-ns#"
   xmlns:svg="http://www.w3.org/2000/svg"
   xmlns="http://www.w3.org/2000/svg"
   xmlns:xlink="http://www.w3.org/1999/xlink"
   xmlns:sodipodi="http://sodipodi.sourceforge.net/DTD/sodipodi-0.dtd"
   xmlns:inkscape="http://www.inkscape.org/namespaces/inkscape"
   height="76.204247"
   width="105.3"
   version="1.1"
   id="svg1545"
   sodipodi:docname="eldidi-cloud-exclamation.svg"
   inkscape:version="1.0.2 (e86c870879, 2021-01-15)">
  <metadata
     id="metadata1551">
    <rdf:RDF>
      <cc:Work
         rdf:about="">
        <dc:format>image/svg+xml</dc:format>
        <dc:type
           rdf:resource="http://purl.org/dc/dcmitype/StillImage" />
        <dc:title></dc:title>
      </cc:Work>
    </rdf:RDF>
  </metadata>
  <defs
     id="defs1549">
    <linearGradient
       inkscape:collect="always"
       id="linearGradient7299">
      <stop
         style="stop-color:#0095a2;stop-opacity:1"
         offset="0"
         id="stop7295" />
      <stop
         style="stop-color:#396abf;stop-opacity:0.99215686"
         offset="1"
         id="stop7297" />
    </linearGradient>
    <linearGradient
       inkscape:collect="always"
       id="linearGradient2342">
      <stop
         style="stop-color:#0095a2;stop-opacity:1;"
         offset="0"
         id="stop2338" />
      <stop
         style="stop-color:#396abf;stop-opacity:0.99215686"
         offset="1"
         id="stop2340" />
    </linearGradient>
    <linearGradient
       inkscape:collect="always"
       xlink:href="#linearGradient2342"
       id="linearGradient2344"
       x1="-0.5"
       y1="49.9995"
       x2="117.65667"
       y2="76.554306"
       gradientUnits="userSpaceOnUse"
       gradientTransform="translate(2.6500001,-19.227)" />
    <linearGradient
       inkscape:collect="always"
       xlink:href="#linearGradient7299"
       id="linearGradient7301"
       x1="1.5224915"
       y1="30.655334"
       x2="113.83286"
       y2="56.386734"
       gradientUnits="userSpaceOnUse"
       gradientTransform="matrix(0.99187316,0,0,0.99233719,0.45985564,-0.38827173)" />
  </defs>
  <sodipodi:namedview
     pagecolor="#ffffff"
     bordercolor="#666666"
     borderopacity="1"
     objecttolerance="10"
     gridtolerance="10"
     guidetolerance="10"
     inkscape:pageopacity="0"
     inkscape:pageshadow="2"
     inkscape:window-width="2192"
     inkscape:window-height="1119"
     id="namedview1547"
     showgrid="false"
     showguides="true"
     inkscape:guide-bbox="true"
     fit-margin-top="0"
     fit-margin-left="0"
     fit-margin-right="0"
     fit-margin-bottom="0"
     inkscape:zoom="5.6568542"
     inkscape:cx="32.786807"
     inkscape:cy="44.948024"
     inkscape:window-x="0"
     inkscape:window-y="27"
     inkscape:window-maximized="1"
     inkscape:current-layer="svg1545"
     inkscape:document-rotation="0">
    <sodipodi:guide
       position="32.731417,14.662795"
       orientation="0,-1"
       id="guide2336" />
  </sodipodi:namedview>
  <path
     d="m 83.895,21.399 c -2.34,0 -4.558,0.484 -6.615,1.264 C 75.492,11.342 65.772,2.6500001 53.954,2.6500001 40.859,2.6500001 30.252,13.258 30.252,26.346 c 0,0.296 0.081,0.571 0.094,0.867 -0.296,-0.02 -0.578,-0.087 -0.874,-0.087 -7.045,0 -12.759,5.714 -12.759,12.759 0,0.087 0.027,0.168 0.027,0.255 -1.008,-0.302 -2.05,-0.518 -3.153,-0.518 -6.0429999,0 -10.9369999,4.901 -10.9369999,10.938 0,6.043 4.894,8.335 10.9369999,8.335 h 70.308 c 10.358,0 18.755,-8.389 18.755,-18.748 0,-10.359 -8.396,-18.748 -18.755,-18.748 z"
     id="path1543"
     style="fill:#ffffff;fill-opacity:0.00156238;stroke:url(#linearGradient2344);stroke-width:5.3;stroke-miterlimit:4;stroke-dasharray:none;stroke-opacity:1" />
  <circle
     cx="56.584957"
     cy="52.496758"
     fill="#ffffff"
     id="circle2610"
     style="stroke-width:0.749594"
     r="22.48781" />
  <path
     d="m 56.584955,29.39072 c -12.731492,0 -23.00872,10.213375 -23.00872,22.865763 0,12.652391 10.277228,22.865765 23.00872,22.865765 12.731493,0 23.008722,-10.213374 23.008722,-22.865765 0,-12.652388 -10.277229,-22.865763 -23.008722,-22.865763 z m 2.863307,36.585222 c 0,1.626009 -1.278263,2.845519 -2.863307,2.845519 -1.585044,0 -2.812178,-1.270323 -2.812178,-2.845519 v -0.558941 c 0,-1.575197 1.278264,-2.845518 2.812178,-2.845518 1.585044,0 2.863307,1.270321 2.863307,2.845518 z M 60.828787,40.213849 59.397133,57.59183 c -0.153393,1.626007 -1.533915,2.74389 -3.11896,2.642264 -1.431655,-0.101628 -2.505396,-1.270319 -2.607656,-2.642264 L 52.238865,40.213849 c -0.255654,-2.286577 1.891826,-4.522342 4.192699,-4.522342 2.556525,0 4.601743,2.235765 4.397223,4.522342 z"
     id="path5969"
     style="fill:url(#linearGradient7301);fill-opacity:1;stroke-width:0.509713" />
</svg>
